<?xml version="1.0" encoding="utf-8"?>
<!-- Generator: Adobe Illustrator 24.1.1, SVG Export Plug-In . SVG Version: 6.00 Build 0)  -->
<svg version="1.1" id="Слой_1" xmlns="http://www.w3.org/2000/svg" xmlns:xlink="http://www.w3.org/1999/xlink" x="0px" y="0px"
	 viewBox="0 0 60 60" style="enable-background:new 0 0 60 60;" xml:space="preserve">
<style type="text/css">
	.st0{fill-rule:evenodd;clip-rule:evenodd;fill-opacity:1.000000e-02;}
	.st1{fill-rule:evenodd;clip-rule:evenodd;fill:#2196F3;}
	.st2{fill:none;stroke:#42A5F5;stroke-width:4;}
	.st3{fill-rule:evenodd;clip-rule:evenodd;fill:#FFFFFF;filter:url(#Adobe_OpacityMaskFilter);}
	.st4{mask:url(#mask0_1_);}
	.st5{fill:none;stroke:#42A5F5;stroke-width:4;stroke-linecap:square;}
	.st6{fill:none;stroke:#42A5F5;stroke-width:4;stroke-linecap:round;stroke-linejoin:round;}
	.st7{fill-rule:evenodd;clip-rule:evenodd;fill:#FFFFFF;}
	.st8{fill-rule:evenodd;clip-rule:evenodd;fill:#FFFFFF;filter:url(#Adobe_OpacityMaskFilter_1_);}
	.st9{mask:url(#mask0_2_);}
	.st10{fill:#EBECF2;}
	.st11{fill-rule:evenodd;clip-rule:evenodd;fill:#DEE1E3;}
	.st12{opacity:0.4;fill-rule:evenodd;clip-rule:evenodd;fill:#DEE1E3;enable-background:new    ;}
	.st13{fill-rule:evenodd;clip-rule:evenodd;fill:#C5C6CC;}
</style>
<g>
	<path class="st0" d="M30,60c12.2,0,22-9.8,22-22s-9.8-22-22-22S8,25.8,8,38S17.8,60,30,60z"/>
</g>
<g>
	<path class="st1" d="M30,60c16.6,0,30-13.4,30-30S46.6,0,30,0S0,13.4,0,30S13.4,60,30,60z"/>
	<path class="st2" d="M58,30c0,15.5-12.5,28-28,28S2,45.5,2,30S14.5,2,30,2S58,14.5,58,30z"/>
</g>
<defs>
	<filter id="Adobe_OpacityMaskFilter" filterUnits="userSpaceOnUse" x="0.7" y="2.5" width="57.8" height="55">
		<feColorMatrix  type="matrix" values="1 0 0 0 0  0 1 0 0 0  0 0 1 0 0  0 0 0 1 0"/>
	</filter>
</defs>
<mask maskUnits="userSpaceOnUse" x="0.7" y="2.5" width="57.8" height="55" id="mask0_1_">
	<path class="st3" d="M30,60c16.6,0,30-13.4,30-30S46.6,0,30,0S0,13.4,0,30S13.4,60,30,60z"/>
</mask>
<g class="st4">
	<path class="st5" d="M2.7,22.9h53.8"/>
	<path class="st5" d="M2.7,38.6h53.8"/>
	<path class="st6" d="M29.3,4.5c0,0-10,11.6-9.7,26.3c0.2,14.7,9.7,24.8,9.7,24.8"/>
	<path class="st6" d="M30,4.5c0,0,10,11.6,9.7,26.3C39.5,45.4,30,55.5,30,55.5"/>
</g>
<path class="st7" d="M46.9,19.8c-0.6-1.1-3.6-1-4.6-1c-0.2,0-0.5,0.1-0.7,0.2l-6.1,3.5l-14.3-9.2c-0.2-0.1-0.5-0.1-0.7,0L19.3,14
	c-0.2,0.1-0.3,0.3-0.3,0.4l-0.2,1c0,0.2,0,0.3,0.1,0.5l7.7,11.8l-6.4,3.7l-4.4-1.7c-0.3-0.1-0.6,0-0.8,0.3l-0.2,0.4
	c-0.1,0.2-0.1,0.5,0,0.7l2.6,3.5c-0.7,1-1.1,2.1-0.8,2.6c0.1,0.1,0.2,0.2,0.3,0.3c0.2,0.1,0.5,0.1,0.7,0.2c0.5,0.1,1,0.1,1.6,0.1
	l1.8,4c0.1,0.2,0.3,0.4,0.6,0.4l0.5,0c0.3,0,0.6-0.2,0.7-0.6l0.7-4.7l6.4-3.7l6.5,12.6c0.1,0.1,0.2,0.3,0.4,0.3l0.9,0.3
	c0.2,0.1,0.4,0,0.5-0.1l1.2-0.7c0.2-0.1,0.3-0.3,0.3-0.6l-0.8-17.1l6.1-3.5c0.2-0.1,0.4-0.3,0.5-0.5C46,23.4,47.6,20.9,46.9,19.8z"
	/>
<defs>
	<filter id="Adobe_OpacityMaskFilter_1_" filterUnits="userSpaceOnUse" x="16.6" y="20" width="30.6" height="26.7">
		<feColorMatrix  type="matrix" values="1 0 0 0 0  0 1 0 0 0  0 0 1 0 0  0 0 0 1 0"/>
	</filter>
</defs>
<mask maskUnits="userSpaceOnUse" x="16.6" y="20" width="30.6" height="26.7" id="mask0_2_">
	<path class="st8" d="M41.7,19c0.2-0.1,0.4-0.2,0.7-0.2c1-0.1,4-0.1,4.6,1c0.6,1.1-0.9,3.6-1.5,4.5c-0.1,0.2-0.3,0.3-0.5,0.5
		l-6.1,3.5l0.8,17.1c0,0.2-0.1,0.5-0.3,0.6l-1.2,0.7c-0.2,0.1-0.4,0.1-0.5,0.1l-0.9-0.3c-0.2-0.1-0.3-0.2-0.4-0.3l-6.5-12.6
		l-6.4,3.7l-0.7,4.7c0,0.3-0.3,0.6-0.7,0.6l-0.5,0c-0.3,0-0.5-0.2-0.6-0.4l-1.8-4c-1.2,0-2.4-0.1-2.7-0.6c-0.3-0.5,0.2-1.6,0.8-2.6
		l-2.6-3.5c-0.1-0.2-0.2-0.5,0-0.7L15,30c0.2-0.3,0.5-0.4,0.8-0.3l4.4,1.7l6.4-3.7l-7.7-11.8c-0.1-0.1-0.1-0.3-0.1-0.5l0.2-1
		c0-0.2,0.2-0.4,0.3-0.4l1.3-0.7c0.2-0.1,0.5-0.1,0.7,0l14.3,9.2L41.7,19z"/>
</mask>
<g class="st9">
	<polygon class="st10" points="34.4,21.8 35.6,22.6 26.6,27.8 25.9,26.7 	"/>
	<path class="st11" d="M39.4,45.9c0.2-0.1,0.3-0.3,0.3-0.6l-0.9-17.7L29.6,33l6.7,13.1c0.1,0.1,0.2,0.3,0.4,0.3l0.9,0.3
		c0.2,0.1,0.4,0,0.5-0.1L39.4,45.9z"/>
	<path class="st12" d="M19.3,37.8L19.3,37.8l1.7,4.1c0.1,0.2,0.3,0.4,0.6,0.4l0.5,0c0.3,0,0.6-0.2,0.7-0.6l0.7-4.9l-0.5,0.3
		c-0.1,0.1-0.3,0.1-0.5,0.2C22.1,37.4,20.7,37.7,19.3,37.8z"/>
	<path class="st13" d="M29.8,33.2l9.1-5.3l0.1,2l-7.5,6.6L29.8,33.2z"/>
	<path class="st11" d="M47.1,20c-0.3,0.7-0.9,2.4-3.2,3.8L23.3,35.7c-2.6,1.5-5.4,1.6-6.7,1.5c0,0,0,0,0,0c0.1,0.1,0.2,0.2,0.3,0.3
		c0.3,0.1,0.6,0.2,0.9,0.3c0.1,0,0.2,0.1,0.3,0.1c0,0,0.1,0,0.1,0c0,0,0,0,0,0c0,0,0,0,0,0c0.1,0,0.3,0,0.4,0.1
		c0.1-0.1,0.2-0.1,0.3-0.1c0.3,0,0.5,0.2,0.5,0.5c0,0,0,0,0.1,0c0.1,0.1,0.2,0.3,0.2,0.5c0.1,0.1,0.1,0.2,0.1,0.2c0.1,0,0.1,0,0.1,0
		l25.6-15C45.5,24.2,47.5,21.3,47.1,20z"/>
</g>
</svg>
